HIERARCHY
ROOT Hips
{
	OFFSET 0.00 0.00 0.00
	CHANNELS 6 Xposition Yposition Zposition Xrotation Yrotation Zrotation
	JOINT LeftUpLeg
	{
		OFFSET 3.31716 0.00000 0.00000
		CHANNELS 3 Xrotation Yrotation Zrotation
		JOINT LeftLeg
		{
			OFFSET 0.00000 -16.62131 0.00000
			CHANNELS 3 Xrotation Yrotation Zrotation
			JOINT LeftFoot
			{
				OFFSET 0.00000 -16.13209 0.00000
				CHANNELS 3 Xrotation Yrotation Zrotation
				JOINT LeftToeBase
				{
					OFFSET 0.00000 -1.70543 6.36475
					CHANNELS 3 Xrotation Yrotation Zrotation
					End Site
					{
						OFFSET 0.00000 0.00000 2.95275
					}
				}
			}
		}
	}
	JOINT RightUpLeg
	{
		OFFSET -3.31716 0.00000 0.00000
		CHANNELS 3 Xrotation Yrotation Zrotation
		JOINT RightLeg
		{
			OFFSET 0.00000 -16.62131 0.00000
			CHANNELS 3 Xrotation Yrotation Zrotation
			JOINT RightFoot
			{
				OFFSET 0.00000 -16.13209 0.00000
				CHANNELS 3 Xrotation Yrotation Zrotation
				JOINT RightToeBase
				{
					OFFSET 0.00000 -1.70543 6.36475
					CHANNELS 3 Xrotation Yrotation Zrotation
					End Site
					{
						OFFSET 0.00000 0.00000 2.95275
					}
				}
			}
		}
	}
	JOINT Spine
	{
		OFFSET 0.00000 0.03937 0.00000
		CHANNELS 3 Xrotation Yrotation Zrotation
		JOINT Spine1
		{
			OFFSET 0.00000 9.21679 0.00000
			CHANNELS 3 Xrotation Yrotation Zrotation
			JOINT Neck
			{
				OFFSET 0.00000 8.81927 0.00000
				CHANNELS 3 Xrotation Yrotation Zrotation
				JOINT Head
				{
					OFFSET 0.00000 6.84636 0.00000
					CHANNELS 3 Xrotation Yrotation Zrotation
					End Site
					{
						OFFSET 0.00000 4.52755 0.00000
					}
				}
			}
			JOINT LeftShoulder
			{
				OFFSET 0.00000 8.81927 0.00000
				CHANNELS 3 Xrotation Yrotation Zrotation
				JOINT LeftArm
				{
					OFFSET 7.31373 -0.00003 0.00000
					CHANNELS 3 Xrotation Yrotation Zrotation
					JOINT LeftForeArm
					{
						OFFSET 10.82262 -0.00004 0.00000
						CHANNELS 3 Xrotation Yrotation Zrotation
						JOINT LeftHand
						{
							OFFSET 10.14781 -0.00004 0.00000
							CHANNELS 3 Xrotation Yrotation Zrotation
							JOINT LeftHandThumb
							{
								OFFSET 0.00000 0.00000 0.00000
								CHANNELS 3 Xrotation Yrotation Zrotation
								End Site
								{
									OFFSET 0.00000 0.00000 3.93700
								}
							}
							JOINT L_Wrist_End
							{
								OFFSET 3.93700 -0.00001 0.00000
								CHANNELS 3 Xrotation Yrotation Zrotation
							}
						}
					}
				}
			}
			JOINT RightShoulder
			{
				OFFSET 0.00000 8.81927 0.00000
				CHANNELS 3 Xrotation Yrotation Zrotation
				JOINT RightArm
				{
					OFFSET -7.31373 -0.00003 0.00000
					CHANNELS 3 Xrotation Yrotation Zrotation
					JOINT RightForeArm
					{
						OFFSET -10.82262 -0.00004 0.00000
						CHANNELS 3 Xrotation Yrotation Zrotation
						JOINT RightHand
						{
							OFFSET -10.14781 -0.00004 0.00000
							CHANNELS 3 Xrotation Yrotation Zrotation
							JOINT RightHandThumb
							{
								OFFSET 0.00000 0.00000 0.00000
								CHANNELS 3 Xrotation Yrotation Zrotation
								End Site
								{
									OFFSET 0.00000 0.00000 3.93700
								}
							}
							JOINT R_Wrist_End
							{
								OFFSET -5.39369 -0.00002 0.00000
								CHANNELS 3 Xrotation Yrotation Zrotation
							}
						}
					}
				}
			}
		}
	}
}
MOTION
Frames: 6
Frame Time: 0.008333
 -6.0457 34.8772 -9.5556 44.2650 27.2891 19.3226 -17.3566 12.8235 11.8213 56.2499 -0.0000 -0.0000 -13.1717 1.9230 2.8776 -16.1823 0.0000 0.0000 -78.4824 2.6957 -32.6324 41.9986 -0.0000 0.0000 -18.5807 5.2561 6.5199 -16.3129 0.0000 0.0000 3.6804 5.1914 1.6791 -7.1529 -1.5214 19.7821 12.4906 -1.9126 -3.4903 -35.1726 9.8493 -10.3008 -7.3119 4.7630 10.7577 -3.0771 35.6189 -49.1133 -0.0001 -21.9427 -0.0000 -3.0343 -13.1983 18.5593 0.0000 0.0000 -0.0000 0.0000 0.0000 -0.0000 -18.7474 10.5930 -13.1686 -11.6652 4.2372 27.5160 -0.0001 28.2415 0.0000 12.3189 -0.7388 -17.8360 0.0000 -0.0000 -0.0000 0.0000 -0.0000 -0.0000
 -6.0450 34.8802 -9.5202 43.8819 27.4846 19.3335 -17.7847 12.7193 12.0296 56.8378 0.0000 0.0000 -13.1367 1.9077 2.8597 -16.2449 -0.0000 0.0000 -78.1068 2.4604 -32.9228 42.0070 -0.0000 0.0000 -18.8087 5.2433 6.9187 -16.0677 0.0000 -0.0000 3.5338 5.5285 1.7222 -7.4465 -1.5229 19.8981 12.3370 -2.2415 -3.4257 -34.7521 9.7266 -10.4569 -7.2193 4.7321 10.7533 -2.8126 35.4720 -49.4579 -0.0001 -21.5779 -0.0000 -2.8569 -13.3079 18.7481 -0.0000 -0.0000 -0.0000 -0.0000 -0.0000 -0.0000 -18.8974 10.7920 -13.0218 -11.2596 4.3616 27.6416 -0.0001 27.7740 0.0000 12.2067 -0.6739 -17.5706 -0.0000 -0.0000 0.0000 -0.0000 -0.0000 0.0000
 -6.0160 34.8896 -9.4741 43.1683 27.5747 19.7570 -17.8134 12.6966 11.9101 57.3871 -0.0000 0.0000 -13.0875 1.9237 2.8271 -16.1369 0.0000 -0.0000 -77.5523 2.4496 -33.3473 42.1848 -0.0000 0.0000 -18.9963 5.3550 6.9987 -16.2602 0.0000 0.0000 3.6448 5.4751 1.6989 -7.5879 -1.2704 19.8564 12.2553 -2.4195 -3.3744 -34.6247 9.5916 -10.6241 -7.2601 4.8716 10.6719 -2.4579 35.3649 -49.6150 -0.0001 -21.3979 -0.0000 -2.9973 -13.2475 18.5134 -0.0000 -0.0000 0.0000 -0.0000 -0.0000 0.0000 -18.8406 10.9629 -12.9102 -11.1522 4.6258 27.9196 -0.0001 27.3230 0.0000 12.3774 -0.8105 -17.3681 0.0000 0.0000 -0.0000 0.0000 0.0000 -0.0000
 -5.9914 34.9006 -9.4216 42.5308 27.7096 20.0348 -17.8364 12.5205 11.8294 57.7391 -0.0000 0.0000 -13.1942 2.0384 2.2605 -16.0418 -0.0000 0.0000 -77.1364 2.1350 -33.8290 42.2820 -0.0000 0.0000 -19.1244 5.6410 7.1531 -16.0240 0.0000 0.0000 3.6160 5.8454 1.6911 -7.7990 -1.2818 19.9358 12.1982 -2.9894 -3.3275 -34.4374 9.6397 -10.7636 -7.0810 4.9021 10.5708 -2.3444 35.2525 -49.8888 -0.0001 -21.0592 -0.0000 -2.9231 -13.2249 18.5921 0.0000 -0.0000 -0.0000 0.0000 -0.0000 -0.0000 -19.0069 11.2486 -12.7793 -10.6104 4.5890 28.0214 -0.0001 27.0520 0.0000 12.3740 -0.6439 -17.0649 0.0000 0.0000 -0.0000 0.0000 0.0000 -0.0000
 -5.9830 34.9213 -9.3860 41.9543 28.0822 20.3223 -18.2145 12.2127 11.7026 58.3206 0.0000 0.0000 -13.1688 2.1472 2.0743 -16.0032 -0.0000 -0.0000 -76.6935 2.0533 -34.3874 42.3765 -0.0000 0.0000 -19.3151 5.6206 7.1741 -15.9735 0.0000 -0.0000 3.6481 5.7534 1.6198 -8.1589 -1.0566 20.0236 12.0536 -3.0527 -3.2605 -34.1533 9.2733 -11.0614 -7.2166 4.9010 10.5651 -1.6938 35.0033 -50.2613 -0.0001 -20.7510 -0.0000 -3.1301 -13.2519 18.7595 0.0000 -0.0000 0.0000 0.0000 -0.0000 0.0000 -18.9602 11.2906 -12.7034 -10.5909 4.8396 28.3048 -0.0001 26.6049 0.0000 12.4976 -0.5224 -16.5913 -0.0000 -0.0000 0.0000 -0.0000 -0.0000 0.0000
 -5.9782 34.9059 -9.3436 41.2988 28.2814 20.2908 -18.8975 12.3450 12.3013 59.3689 -0.0000 0.0000 -13.0977 1.9579 2.5960 -16.0326 -0.0000 -0.0000 -76.2436 1.5118 -34.7543 42.5409 -0.0000 0.0000 -19.4718 5.7102 7.0463 -16.0378 0.0000 0.0000 3.5497 6.0759 1.7974 -8.3298 -1.1020 20.1761 11.8818 -3.3448 -3.2138 -33.6871 9.0435 -11.2072 -6.9587 4.8966 10.5723 -1.4398 34.8519 -50.6065 -0.0001 -20.4241 -0.0000 -3.4458 -13.2829 18.8305 0.0000 0.0000 0.0000 0.0000 0.0000 0.0000 -18.6519 11.4100 -12.6958 -10.6593 4.9222 28.6028 -0.0001 26.3422 0.0000 12.5615 -0.5934 -16.4163 0.0000 -0.0000 -0.0000 0.0000 -0.0000 -0.0000
